<?xml version="1.0" encoding="utf-8"?>
<svg version="1.1" id="Group_499" xmlns="http://www.w3.org/2000/svg" xmlns:xlink="http://www.w3.org/1999/xlink" x="0px" y="0px" viewBox="0 0 163.4 47.7" style="enable-background:new 0 0 163.4 47.7;" xml:space="preserve">
	<style type="text/css">
		.st0 {
			fill-rule: evenodd;
			clip-rule: evenodd;
			fill: #FFD600;
		}
	</style>
	<g id="Group_498">
		<g id="Group_497">
			<g id="Group_464" transform="translate(42.208 7.277)">
				<g id="Group_463" transform="translate(0 0)">
					<path id="Path_513" class="st0" d="M28.7,0H0v10.9h16.7L28.7,0z" />
				</g>
			</g>
			<g id="Group_466" transform="translate(50.577 35.295)">
				<g id="Group_465">
					<path id="Path_514" class="st0" d="M0,11.3h26.6V0H12.4L0,11.3z" />
				</g>
			</g>
			<g id="Group_468" transform="translate(118.62 7.641)">
				<g id="Group_467">
					<path id="Path_515" class="st0" d="M30.6,0H14.2L0,39.3h14.6l1.8-4.7H28l1.8,4.7h14.9L30.6,0z M19.6,24.7l3.3-10.2l2.5,10.2
					H19.6z" />
				</g>
			</g>
			<g id="Group_470" transform="translate(81.87 7.641)">
				<g id="Group_469">
					<path id="Path_516" class="st0" d="M20.7,0l-6.5,12.4V0H0v39.3h14.2V26.6l6.2,12.7h14.9l-10.9-20L36.4,0H20.7z" />
				</g>
			</g>
			<g id="Group_472" transform="translate(0 6.913)">
				<g id="Group_471">
					<path id="Path_517" class="st0" d="M19.6,0C9.1,0,0,9.1,0,20.4s9.1,20.4,19.6,20.4c10.9,0,19.6-9.1,19.6-20.4
					C39.7,9.5,31.1,0.4,20.2,0C20,0,19.8,0,19.6,0z M19.6,27.3c-3.3,0-5.8-2.9-5.8-6.9c0-3.6,2.5-6.9,5.8-6.9s5.8,2.9,5.8,6.9
					C25.5,24,22.9,27.3,19.6,27.3z" />
				</g>
			</g>
			<g id="Group_474" transform="translate(6.913)">
				<g id="Group_473">
					<path id="Path_518" class="st0" d="M3.6,7.3c2-0.1,3.5-1.7,3.6-3.6C7.4,1.7,5.9,0.1,4.1,0C3.9,0,3.8,0,3.6,0
					C1.7,0.1,0.1,1.7,0,3.6C0.1,5.6,1.7,7.1,3.6,7.3z" />
				</g>
			</g>
			<g id="Group_476" transform="translate(25.107)">
				<g id="Group_475">
					<path id="Path_519" class="st0" d="M3.6,7.3c2-0.1,3.5-1.7,3.6-3.6C7.4,1.7,5.9,0.1,4.1,0C3.9,0,3.8,0,3.6,0
					C1.7,0.1,0.1,1.7,0,3.6C0.1,5.6,1.7,7.1,3.6,7.3z" />
				</g>
			</g>
			<g id="Group_478" transform="translate(57.491 18.921)">
				<g id="Group_477">
					<path id="Path_520" class="st0" d="M6.9,13.8c0.8-0.8,1.6-1.5,2.5-2.2v-0.4L8.4,6.9c0-0.4,0-0.4-0.4-0.4C6.5,5.8,5.5,5.5,4,4.7
					c-0.2,0-0.4-0.2-0.4-0.3c0,0,0,0,0,0c0-0.4-0.4-0.7-0.4-1.5C2.9,2.2,2.9,1.1,2.5,0l0,0C1.6,0.8,0.8,1.6,0,2.5v0.4
					c0,1.4,0.3,2.7,0.7,4c0,0.2,0.2,0.4,0.3,0.4c0,0,0,0,0,0c1.5,0.7,2.5,1.1,4,1.8c0.2,0,0.4,0.2,0.4,0.3c0,0,0,0,0,0
					C5.6,11,6.1,12.5,6.9,13.8L6.9,13.8z" />
				</g>
			</g>
			<g id="Group_480" transform="translate(53.124 22.924)">
				<g id="Group_479">
					<path id="Path_521" class="st0" d="M6.5,13.5L6.5,13.5c1.1-0.7,1.8-1.5,2.9-2.2v-0.4L8.4,6.6c0-0.2-0.2-0.4-0.3-0.4c0,0,0,0,0,0
					C6.5,5.5,5.5,5.1,4,4.4C3.8,4.4,3.6,4.2,3.6,4c0,0,0,0,0,0C3.6,3.4,3.4,2.8,3.3,2.2C2.9,1.5,2.9,0.7,2.5,0l0,0L0,2.5v0.4
					c0.4,1.5,0.7,2.5,1.1,4c0,0.4,0,0.4,0.4,0.4C2.9,8,4,8.4,5.5,9.1c0.2,0,0.4,0.2,0.4,0.3c0,0,0,0,0,0C5.9,10.8,6.2,12.2,6.5,13.5
					z" />
				</g>
			</g>
			<g id="Group_482" transform="translate(61.129 14.918)">
				<g id="Group_481">
					<path id="Path_522" class="st0" d="M6.9,14.2L6.9,14.2l2.5-2.5v-0.4L8.4,6.9c0-0.2-0.2-0.4-0.3-0.4c0,0,0,0,0,0
					C6.5,5.8,5.5,5.5,4,4.7c-0.2,0-0.4-0.2-0.4-0.3c0,0,0,0,0,0c-0.4-1.5-0.7-2.5-1.1-4V0l0,0C1.6,0.8,0.8,1.6,0,2.5v0.4
					c0.4,1.8,0.7,2.9,1.1,4.4c0,0.4,0,0.4,0.4,0.4c1.5,0.7,2.5,1.1,4,1.8c0.2,0,0.4,0.2,0.4,0.3c0,0,0,0,0,0
					C6.3,11.3,6.6,12.7,6.9,14.2L6.9,14.2z" />
				</g>
			</g>
			<g id="Group_484" transform="translate(45.119 30.565)">
				<g id="Group_483">
					<path id="Path_523" class="st0" d="M8,6.2C6.6,5.5,5.5,5.1,4,4.4C3.8,4.4,3.6,4.2,3.6,4c0,0,0,0,0,0C3.3,3.3,3.3,2.2,2.9,1.5
					c0-0.4-0.4-1.1-0.4-1.5l0,0L0,2.5v0.4c0.4,1.5,0.7,2.5,1.1,4c0,0.4,0,0.4,0.4,0.4c1.4,0.5,2.7,1.1,4,1.8c0.2,0,0.4,0.2,0.4,0.3
					c0,0,0,0,0,0c0.4,1.5,0.7,2.9,1.1,4c0,0.4,0,0.4,0.4,0C8,12.7,9.1,12,9.8,11.3v-0.4C9.1,9.5,8.7,8,8,6.2L8,6.2z" />
				</g>
			</g>
			<g id="Group_486" transform="translate(65.132 11.644)">
				<g id="Group_485">
					<path id="Path_524" class="st0" d="M6.9,13.1L6.9,13.1c1.1-0.7,1.8-1.5,2.9-2.2v-0.4L8.7,6.2c0-0.4,0-0.4-0.4-0.4
					C7,5.4,5.6,4.8,4.4,4C4,4.4,4,4.4,4,4C3.6,3.1,3.3,2.1,3.3,1.1c0-0.4-0.4-0.7-0.4-1.1H2.5C1.8,0.8,0.9,1.5,0,2.2v0.4
					c0.4,1.5,0.7,2.5,1.1,4c0,0.4,0,0.4,0.4,0.4C2.9,7.6,4,8,5.5,8.7c0.2,0,0.4,0.2,0.4,0.3c0,0,0,0,0,0C6.2,10.6,6.6,12,6.9,13.1z" />
				</g>
			</g>
			<g id="Group_488" transform="translate(49.122 26.562)">
				<g id="Group_487" transform="translate(0)">
					<path id="Path_525" class="st0" d="M6.9,13.5c0.7-0.7,1.8-1.5,2.5-2.2v-0.4L8.4,6.6c0-0.2-0.2-0.4-0.3-0.4c0,0,0,0,0,0
					C6.5,5.5,5.5,5.1,4,4.4C3.8,4.4,3.6,4.2,3.6,4c0,0,0,0,0,0C3.3,2.9,2.9,1.5,2.5,0.4V0l0,0L0,2.5v0.4C0.4,4,0.7,5.5,1.1,6.6
					c0,0.4,0,0.4,0.4,0.4C2.9,7.3,4,8,5.5,8.4c0.2,0,0.4,0.2,0.4,0.3c0,0,0,0,0,0C5.7,10.4,6.1,12,6.9,13.5L6.9,13.5z" />
				</g>
			</g>
			<g id="Group_490" transform="translate(42.572 34.203)">
				<g id="Group_489">
					<path id="Path_526" class="st0" d="M6.5,6.2C5.1,5.5,4,5.1,2.5,4.4L2.2,4C1.8,2.9,1.8,2.2,1.5,1.1c0-0.4-0.4-0.7-0.4-1.1
					L0.4,0.7L0,1.1v5.8c0,0.4,0,0.4,0.4,0.4c1.1,0.4,2.2,1.1,3.3,1.5C3.8,8.7,4,8.9,4,9.1c0,0,0,0,0,0c0.4,1,0.7,2.2,0.7,3.3
					c0,0.2,0.2,0.4,0.3,0.4c0,0,0,0,0,0h1.5C6.9,12.4,7.6,12,8,11.3v-0.4C7.6,9.3,7.1,7.7,6.5,6.2L6.5,6.2z" />
				</g>
			</g>
			<g id="Group_492" transform="translate(69.134 7.277)">
				<g id="Group_491">
					<path id="Path_527" class="st0" d="M0,3.3c0.4,1.5,0.7,2.5,1.1,4c0,0.4,0,0.4,0.4,0.4c1.5,0.7,2.5,1.1,4,1.8
					c0.2,0,0.4,0.2,0.4,0.3c0,0,0,0,0,0c0.4,0.7,0.4,1.5,0.7,2.2c0.4,0.7,0.4,1.5,0.7,2.2v-0.4c0.4,0,0.4-0.4,0.4-0.7V6.5
					c0-0.4,0-0.4-0.4-0.4C6.2,5.9,5.2,5.4,4.4,4.7C4.2,4.7,4,4.6,4,4.4c0,0,0,0,0,0c-0.4-1-0.7-2.2-0.7-3.3C3.3,0.7,3.2,0.3,2.9,0
					L2.5,0.4C1.8,1.2,0.9,1.9,0,2.5C0,2.9,0,3.3,0,3.3z" />
				</g>
			</g>
			<g id="Group_494" transform="translate(73.137 6.55)">
				<g id="Group_493">
					<path id="Path_528" class="st0" d="M1.5,4.4c0.4,0,0.7,0.4,1.1,0.4s0.7,0.4,1.1,0.4V0.4C3.6,0,3.6,0,3.3,0H0
					C0.7,1.8,0.7,3.3,1.5,4.4z" />
				</g>
			</g>
			<g id="Group_496" transform="translate(42.572 42.936)">
				<g id="Group_495">
					<path id="Path_529" class="st0" d="M2.5,1.1L0.4,0H0v3.6h3.3C3.2,2.8,2.9,1.9,2.5,1.1z" />
				</g>
			</g>
		</g>
	</g>
</svg>
